<?xml version="1.0" encoding="UTF-8" standalone="no"?>
<!-- Created with Inkscape (http://www.inkscape.org/) -->

<svg
   width="97.534683mm"
   height="72.389801mm"
   viewBox="0 0 97.534683 72.389801"
   version="1.1"
   id="svg1"
   inkscape:version="1.4.2 (f4327f4, 2025-05-13)"
   sodipodi:docname="DeniceWithaC_transparent_path.svg"
   inkscape:export-filename="DeniceWithaC_transparent.png"
   inkscape:export-xdpi="96"
   inkscape:export-ydpi="96"
   xmlns:inkscape="http://www.inkscape.org/namespaces/inkscape"
   xmlns:sodipodi="http://sodipodi.sourceforge.net/DTD/sodipodi-0.dtd"
   xmlns="http://www.w3.org/2000/svg"
   xmlns:svg="http://www.w3.org/2000/svg">
  <sodipodi:namedview
     id="namedview1"
     pagecolor="#505050"
     bordercolor="#ffffff"
     borderopacity="1"
     inkscape:showpageshadow="0"
     inkscape:pageopacity="0"
     inkscape:pagecheckerboard="1"
     inkscape:deskcolor="#505050"
     inkscape:document-units="mm"
     inkscape:zoom="1.0167041"
     inkscape:cx="314.25072"
     inkscape:cy="181.46873"
     inkscape:window-width="1920"
     inkscape:window-height="1009"
     inkscape:window-x="792"
     inkscape:window-y="137"
     inkscape:window-maximized="1"
     inkscape:current-layer="layer1" />
  <defs
     id="defs1">
    <rect
       x="155.40411"
       y="115.07773"
       width="448.50809"
       height="501.62088"
       id="rect3" />
    <rect
       x="236.46635"
       y="178.04526"
       width="316.32828"
       height="99.714088"
       id="rect1" />
  </defs>
  <symbol id="logo" viewBox="0 0 97.534683 72.389801">
    <g
      inkscape:label="logo"
      inkscape:groupmode="layer"
      id="layer1"
      transform="translate(-5.6889175,-7.8105479)">
      <path
         style="font-weight:bold;font-size:74.6667px;font-family:'DejaVu Serif';-inkscape-font-specification:'DejaVu Serif Bold';white-space:pre"
         fill="currentColor"
         line="currentColor"
         d="m 260.96681,241.57084 h 5.06771 q 8.53125,0 12.46876,-5.46875 3.97396,-5.46875 3.97396,-17.39064 0,-11.84896 -3.93751,-17.28125 -3.9375,-5.46876 -12.50521,-5.46876 h -5.06771 z m -21.00001,4.41146 v -4.41146 h 6.96354 v -45.6094 h -6.96354 v -4.41146 h 27.9271 q 14.65625,0 22.42188,7.00001 7.76563,7 7.76563,20.16146 0,13.23439 -7.80209,20.27085 -7.76563,7 -22.38542,7 z m 91.18233,-21.87501 q 0,-7.65625 -1.42187,-10.71875 -1.42188,-3.09896 -4.84896,-3.09896 -3.31771,0 -4.77605,3.02604 -1.42187,3.02604 -1.42187,10.13542 v 0.65625 z m 14.1823,4.33854 h -26.65105 v 0.29167 q 0,7.51042 2.26042,10.86459 2.26041,3.31771 7.29167,3.31771 4.19271,0 6.78125,-2.22396 2.58854,-2.22396 3.31771,-6.45313 h 6.05208 q -1.5677,6.59896 -6.23437,9.69792 -4.66667,3.09896 -13.05209,3.09896 -10.06251,0 -15.45834,-5.28646 -5.35938,-5.32292 -5.35938,-15.16667 0,-9.62501 5.50521,-15.02084 5.50521,-5.39584 15.31251,-5.39584 9.625,0 14.76563,5.68751 5.14063,5.65104 5.46875,16.58854 z m 5.94272,17.53647 v -4.41146 h 5.50521 v -29.93231 h -5.50521 v -4.41146 h 18.41146 v 5.46876 q 2.33334,-3.46355 5.32292,-4.9948 2.98959,-1.53125 7.54688,-1.53125 6.52605,0 9.84376,3.86459 3.35416,3.82812 3.35416,11.30209 v 20.23438 h 5.54167 v 4.41146 h -23.15105 v -4.41146 h 4.70313 v -20.59897 q 0,-4.92187 -1.27604,-6.81771 -1.23959,-1.93229 -4.33855,-1.93229 -3.90104,0 -5.72396,2.88021 -1.82292,2.84375 -1.82292,9.07813 v 17.39063 h 4.73959 v 4.41146 z m 58.58856,-49.72919 q 0,-2.95313 2.04167,-4.95833 2.04167,-2.04167 4.9948,-2.04167 2.88021,0 4.88542,2.04167 2.04166,2.0052 2.04166,4.95833 0,2.88021 -2.04166,4.92188 -2.00521,2.00521 -4.88542,2.00521 -2.95313,0 -4.9948,-2.00521 -2.04167,-2.00521 -2.04167,-4.92188 z m 14.10939,45.31773 h 5.54167 v 4.41146 h -23.95314 v -4.41146 h 5.50521 v -29.93231 h -5.50521 v -4.41146 h 18.41147 z m 49.51043,-7.69271 q -1.38541,6.63542 -5.6875,9.91667 -4.26563,3.24479 -11.63021,3.24479 -10.35417,0 -16.04168,-5.35937 -5.6875,-5.35938 -5.6875,-15.09376 0,-9.62501 5.61459,-15.02084 5.61458,-5.39584 15.60417,-5.39584 4.04688,0 8.16667,0.76563 4.11979,0.76562 8.38542,2.29687 v 10.75522 h -4.08333 q -0.58334,-4.92188 -2.88021,-7.29167 -2.29688,-2.40625 -6.45313,-2.40625 -5.39584,0 -7.69271,3.64583 -2.26042,3.64584 -2.26042,12.65105 0,8.78646 2.22396,12.57813 2.22396,3.75521 7.25521,3.75521 3.90104,0 6.23438,-2.33333 2.36979,-2.33334 2.88021,-6.70834 z m 33.28648,-9.77084 q 0,-7.65625 -1.42188,-10.71875 -1.42187,-3.09896 -4.84896,-3.09896 -3.31771,0 -4.77604,3.02604 -1.42188,3.02604 -1.42188,10.13542 v 0.65625 z m 14.18229,4.33854 h -26.65105 v 0.29167 q 0,7.51042 2.26042,10.86459 2.26042,3.31771 7.29167,3.31771 4.19271,0 6.78125,-2.22396 2.58854,-2.22396 3.31771,-6.45313 h 6.05209 q -1.56771,6.59896 -6.23438,9.69792 -4.66667,3.09896 -13.05209,3.09896 -10.0625,0 -15.45834,-5.28646 -5.35938,-5.32292 -5.35938,-15.16667 0,-9.62501 5.50521,-15.02084 5.50521,-5.39584 15.31251,-5.39584 9.625,0 14.76563,5.68751 5.14063,5.65104 5.46875,16.58854 z"
         id="text1"
         transform="matrix(0.26458333,0,0,0.26458333,-34.611432,-20.818906)"
         aria-label="Denice"
         inkscape:label="Denice" />
      <path
         style="font-style:italic;font-size:14.1111px;font-family:Serif;-inkscape-font-specification:'Serif Italic';stroke-width:0.264583"
         fill="currentColor"
         line="currentColor"
         d="m 35.482349,57.393106 q 0,-0.649111 -0.02822,-1.509888 -0.02822,-0.874888 -0.07055,-1.777998 -0.04233,-0.903111 -0.07056,-1.650999 -0.02822,-0.747888 -0.04233,-1.171221 -0.07056,0.197555 -0.296333,0.663221 -0.211667,0.451556 -0.508,1.058333 -0.296333,0.606777 -0.634999,1.269999 -0.338667,0.649111 -0.649111,1.255888 -0.310444,0.606777 -0.550333,1.058332 -0.239889,0.437444 -0.338666,0.620889 l -1.453444,0.169333 -0.09878,-6.081884 q -0.01411,-0.649111 -0.268111,-0.832555 -0.254,-0.183444 -0.663222,-0.183444 h -0.141111 l 0.197555,-0.592667 h 2.116665 q 0.02822,0.987777 0.02822,2.116665 0.01411,1.128888 0.01411,2.243665 0.01411,1.114777 0.01411,2.074332 h 0.05644 q 0.338667,-0.578555 0.733777,-1.340554 0.409222,-0.762 0.832555,-1.608666 0.437444,-0.846666 0.832555,-1.707443 0.409222,-0.874888 0.733777,-1.650999 l 1.171222,-0.05644 q 0.04233,0.423333 0.08467,1.100666 0.04233,0.663221 0.07056,1.453443 0.04233,0.776111 0.07056,1.53811 0.02822,0.761999 0.04233,1.396999 0.02822,0.620888 0.02822,0.973666 h 0.09878 q 0.479777,-0.578555 0.945443,-1.255888 0.465667,-0.677333 0.846666,-1.354666 0.395111,-0.691444 0.620889,-1.298221 0.239888,-0.620888 0.239888,-1.086555 0,-0.352777 -0.169333,-0.550333 -0.155222,-0.197555 -0.437444,-0.296333 0.04233,-0.338666 0.254,-0.578555 0.225778,-0.254 0.578555,-0.254 0.352778,0 0.550333,0.268111 0.197555,0.254 0.197555,0.790222 0,0.832555 -0.451555,1.834443 -0.437444,1.001888 -1.241777,2.18722 -0.790221,1.185333 -1.848554,2.610554 z m 8.381997,-9.115771 q -0.352777,0 -0.578555,-0.183444 -0.211666,-0.197555 -0.211666,-0.592666 0,-0.451555 0.225777,-0.719666 0.239889,-0.268111 0.620889,-0.268111 0.338666,0 0.564444,0.197555 0.225777,0.183445 0.225777,0.578555 0,0.550333 -0.268111,0.776111 -0.268111,0.211666 -0.578555,0.211666 z m -0.973666,9.115771 q -0.564444,0 -0.874888,-0.395111 -0.296333,-0.395111 -0.296333,-0.945443 0,-0.296334 0.05644,-0.705555 0.05645,-0.409222 0.127,-0.818444 0.07056,-0.423333 0.127,-0.691444 l 0.550333,-2.596443 q 0.04233,-0.211666 0.04233,-0.366888 0,-0.381 -0.239888,-0.479778 -0.225778,-0.112888 -0.620889,-0.112888 h -0.183444 l 0.127,-0.592667 h 2.525887 l -0.959555,4.529664 q -0.02822,0.155222 -0.08467,0.451555 -0.05644,0.296333 -0.09878,0.606777 -0.02822,0.310444 -0.02822,0.508 0,0.719666 0.465667,0.719666 0.239888,0 0.493888,-0.09878 0.254,-0.112889 0.522111,-0.268111 l 0.254,0.409222 q -0.310444,0.268111 -0.846666,0.564444 -0.522111,0.282222 -1.058333,0.282222 z m 4.684897,0 q -1.53811,0 -1.53811,-1.650999 0,-0.253999 0.04233,-0.578555 0.04233,-0.338666 0.09878,-0.606777 l 0.860778,-4.063997 h -1.072444 l 0.127,-0.564444 q 0.606777,0 1.171221,-0.437444 0.564444,-0.451555 0.987777,-1.53811 h 0.649111 l -0.366889,1.735665 h 1.707443 l -0.169333,0.804333 h -1.707443 l -0.860777,4.021664 q -0.07056,0.352777 -0.127,0.677332 -0.04233,0.310445 -0.04233,0.536222 0,0.409222 0.197555,0.592666 0.197556,0.183445 0.550333,0.183445 0.296333,0 0.606777,-0.08467 0.324556,-0.09878 0.550333,-0.225777 l 0.239889,0.52211 q -0.423333,0.296333 -0.90311,0.493889 -0.465667,0.183444 -1.001889,0.183444 z m 9.10166,0 q -0.620889,0 -0.959555,-0.395111 -0.324556,-0.409222 -0.324556,-1.015999 0,-0.649111 0.268111,-1.904998 l 0.239889,-1.100666 q 0.04233,-0.197556 0.112889,-0.493889 0.07055,-0.296333 0.127,-0.620888 0.05644,-0.324555 0.05644,-0.564444 0,-0.282222 -0.127,-0.550333 -0.112888,-0.282222 -0.52211,-0.282222 -0.437445,0 -0.874889,0.324555 -0.437444,0.324556 -0.818443,0.832555 -0.366889,0.508 -0.635,1.058333 -0.254,0.536221 -0.338666,0.959554 l -0.762,3.612442 h -1.312332 l 1.834443,-8.72066 q 0.07056,-0.282222 0.09878,-0.479777 0.02822,-0.211667 0.02822,-0.268111 0,-0.423333 -0.296333,-0.536222 -0.282222,-0.127 -0.691444,-0.127 h -0.112889 l 0.127,-0.592666 h 2.596442 l -0.550333,2.596442 q -0.155222,0.747889 -0.324555,1.41111 -0.169333,0.663222 -0.239889,0.931333 h 0.155223 q 0.578555,-0.931333 1.199443,-1.41111 0.620888,-0.493889 1.41111,-0.493889 0.832555,0 1.171221,0.479778 0.338667,0.465666 0.338667,1.086555 0,0.352777 -0.09878,0.77611 -0.08467,0.409222 -0.155222,0.776111 l -0.366889,1.665109 q -0.08467,0.395111 -0.141111,0.776111 -0.04233,0.381 -0.04233,0.705555 0,0.677333 0.493889,0.677333 0.409222,0 0.90311,-0.324556 l 0.254,0.409222 q -0.338667,0.282222 -0.762,0.550333 -0.409221,0.254 -0.959554,0.254 z m 8.057455,0 q -0.620888,0 -1.03011,-0.338666 -0.409222,-0.338667 -0.606778,-0.917222 -0.183444,-0.592666 -0.183444,-1.326443 0,-0.663222 0.169333,-1.382888 0.183445,-0.733777 0.536222,-1.41111 0.352778,-0.691444 0.860777,-1.241777 0.508,-0.564444 1.171222,-0.888999 0.663221,-0.338667 1.467554,-0.338667 0.508,0 0.931333,0.141111 0.437444,0.141111 0.719666,0.366889 l 0.620888,-0.352778 h 0.451555 l -0.959554,4.515553 q -0.02822,0.155222 -0.08467,0.451555 -0.05644,0.296333 -0.09878,0.606777 -0.02822,0.310444 -0.02822,0.508 0,0.719666 0.465666,0.719666 0.239889,0 0.493889,-0.09878 0.254,-0.112889 0.522111,-0.268111 l 0.253999,0.409222 q -0.197555,0.183444 -0.536221,0.381 -0.338667,0.197555 -0.719667,0.324555 -0.380999,0.141111 -0.733777,0.141111 -0.507999,0 -0.804332,-0.310444 -0.296334,-0.310444 -0.296334,-0.860777 0,-0.282222 0.02822,-0.508 0.04233,-0.239889 0.112888,-0.592666 h -0.08467 q -0.479778,1.086555 -1.142999,1.679221 -0.663222,0.592666 -1.495777,0.592666 z m 0.508,-0.888999 q 0.366888,0 0.747888,-0.282222 0.395111,-0.282222 0.733777,-0.762 0.352778,-0.479777 0.620889,-1.072443 0.268111,-0.592666 0.39511,-1.199444 l 0.522111,-2.497665 q -0.155222,-0.253999 -0.451555,-0.380999 -0.296333,-0.127 -0.620888,-0.127 -0.564444,0 -1.016,0.324555 -0.451555,0.310444 -0.790221,0.832555 -0.338667,0.522111 -0.578555,1.142999 -0.225778,0.620889 -0.338667,1.255888 -0.112889,0.620889 -0.112889,1.128888 0,0.874888 0.254,1.255888 0.254,0.381 0.635,0.381 z"
         id="text2"
         aria-label="with a"
         inkscape:label="with a" />
      <path
         d="m 306.6043,466.39245 c 64.4,0 90.8,-35.2 102,-68 l -11.6,-5.2 c -10,28.8 -33.6,58.8 -80.4,58.8 -56.8,0 -80.4,-54 -80.4,-122.4 0,-42.8 10.8,-122.4 80.4,-122.4 44,0 68.4,29.6 75.2,66 h 13.2 l -4,-75.6 h -10.8 l -1.6,4 c -1.6,3.6 -5.2,6 -10.4,6 -10.8,0 -26.8,-14.8 -69.2,-14.8 -86.4,0 -138,50 -138,139.6 0,87.6 51.2,134 135.6,134 z"
         id="text3"
         style="font-weight:bold;font-size:400px;font-family:'Frank Ruhl Hofshi';-inkscape-font-specification:'Frank Ruhl Hofshi Bold';white-space:pre"
         fill="currentColor"
         line="currentColor"
         transform="matrix(0.26458333,0,0,0.26458333,-39.555923,-43.19923)"
         aria-label="C"
         inkscape:label="C" />
    </g>
  </symbol>
  <use href="#logo" />
</svg>
